HIERARCHY
ROOT hip
{
	OFFSET 0.00000 0.00000 0.00000
	CHANNELS 6 Xposition Yposition Zposition Zrotation Yrotation Xrotation
	JOINT lhipjoint
	{
		OFFSET 0 0 0
		CHANNELS 3 Zrotation Yrotation Xrotation
		JOINT lfemur
		{
			OFFSET 1.57314 -1.85774 0.63783
			CHANNELS 3 Zrotation Yrotation Xrotation
			JOINT ltibia
			{
				OFFSET 2.57982 -7.08799 0.00000
				CHANNELS 3 Zrotation Yrotation Xrotation
				JOINT lfoot
				{
					OFFSET 2.63993 -7.25315 0.00000
					CHANNELS 3 Zrotation Yrotation Xrotation
					JOINT ltoes
					{
						OFFSET 0.16864 -0.46332 2.12791
						CHANNELS 3 Zrotation Yrotation Xrotation
						End Site
						{
							OFFSET 0.00000 -0.00000 1.09718
						}
					}
				}
			}
		}
	}
	JOINT rhipjoint
	{
		OFFSET 0 0 0
		CHANNELS 3 Zrotation Yrotation Xrotation
		JOINT rfemur
		{
			OFFSET -1.56006 -1.85774 0.63784
			CHANNELS 3 Zrotation Yrotation Xrotation
			JOINT rtibia
			{
				OFFSET -2.54246 -6.98536 0.00000
				CHANNELS 3 Zrotation Yrotation Xrotation
				JOINT rfoot
				{
					OFFSET -2.65791 -7.30256 0.00000
					CHANNELS 3 Zrotation Yrotation Xrotation
					JOINT rtoes
					{
						OFFSET -0.18435 -0.50650 2.16316
						CHANNELS 3 Zrotation Yrotation Xrotation
						End Site
						{
							OFFSET -0.00000 -0.00000 1.11780
						}
					}
				}
			}
		}
	}
	JOINT lowerback
	{
		OFFSET 0 0 0
		CHANNELS 3 Zrotation Yrotation Xrotation
		JOINT upperback
		{
			OFFSET -0.00136 1.92812 -0.29638
			CHANNELS 3 Zrotation Yrotation Xrotation
			JOINT thorax
			{
				OFFSET -0.00528 1.96223 -0.02928
				CHANNELS 3 Zrotation Yrotation Xrotation
				JOINT lowerneck
				{
					OFFSET 0 0 0
					CHANNELS 3 Zrotation Yrotation Xrotation
					JOINT upperneck
					{
						OFFSET -0.01015 1.75586 0.07797
						CHANNELS 3 Zrotation Yrotation Xrotation
						JOINT head
						{
							OFFSET 0.05540 1.72452 0.04558
							CHANNELS 3 Zrotation Yrotation Xrotation
							End Site
							{
								OFFSET 0.02170 1.79958 0.00864
							}
						}
					}
				}
				JOINT lclavicle
				{
					OFFSET 0 0 0
					CHANNELS 3 Zrotation Yrotation Xrotation
					JOINT lhumerus
					{
						OFFSET 3.16292 1.29277 -0.65728
						CHANNELS 3 Zrotation Yrotation Xrotation
						JOINT lradius
						{
							OFFSET 5.52302 -0.00000 -0.00000
							CHANNELS 3 Zrotation Yrotation Xrotation
							JOINT lwrist
							{
								OFFSET 3.58675 -0.00000 -0.00000
								CHANNELS 3 Zrotation Yrotation Xrotation
								JOINT lhand
								{
									OFFSET 0 0 0
									CHANNELS 3 Zrotation Yrotation Xrotation
									JOINT lfingers
									{
										OFFSET 0.53641 -0.00000 -0.00000
										CHANNELS 3 Zrotation Yrotation Xrotation
										End Site
										{
											OFFSET 0.43247 -0.00000 -0.00000
										}
									}
								}
								JOINT lthumb
								{
									OFFSET 0 0 0
									CHANNELS 3 Zrotation Yrotation Xrotation
									End Site
									{
										OFFSET 0.43907 -0.00000 0.43907
									}
								}
							}
						}
					}
				}
				JOINT rclavicle
				{
					OFFSET 0 0 0
					CHANNELS 3 Zrotation Yrotation Xrotation
					JOINT rhumerus
					{
						OFFSET -3.08296 1.43376 -0.52927
						CHANNELS 3 Zrotation Yrotation Xrotation
						JOINT rradius
						{
							OFFSET -5.84780 -0.00000 0.00000
							CHANNELS 3 Zrotation Yrotation Xrotation
							JOINT rwrist
							{
								OFFSET -3.62717 -0.00000 -0.00000
								CHANNELS 3 Zrotation Yrotation Xrotation
								JOINT rhand
								{
									OFFSET 0 0 0
									CHANNELS 3 Zrotation Yrotation Xrotation
									JOINT rfingers
									{
										OFFSET -0.65052 -0.00000 -0.00000
										CHANNELS 3 Zrotation Yrotation Xrotation
										End Site
										{
											OFFSET -0.52446 -0.00000 -0.00000
										}
									}
								}
								JOINT rthumb
								{
									OFFSET 0 0 0
									CHANNELS 3 Zrotation Yrotation Xrotation
									End Site
									{
										OFFSET -0.53247 -0.00000 0.53247
									}
								}
							}
						}
					}
				}
			}
		}
	}
}
MOTION
Frames: 11
Frame Time: 0.033333
2.4599 -3.1091 -2.7072 2.5907 8.1699 -7.2250 1.9035 14.2287 6.3715 -0.7469 -1.6197 14.2285 -6.7331 8.5628 8.2095 3.5823 -6.0379 12.6355 -10.3087 -9.5929 -3.5665 -15.1416 -22.9294 13.3087 16.4108 18.2869 -10.5038 13.3842 -21.5242 4.4473 -17.0501 8.8875 -26.6497 7.7945 -9.8969 0.6989 2.8000 -4.3740 7.9944 -1.6216 -5.1858 -1.8215 5.0142 4.3782 -2.8856 -4.9310 -2.6346 -8.1139 2.8007 0.8616 0.5644 3.3133 -0.8768 -3.7578 -2.3546 -1.3016 -3.9032 -2.4387 0.0976 0.8308 2.3989 -10.5355 -1.7751 5.6081 -5.5559 -6.4361 4.2178 1.5141 1.0192 -2.5800 -1.5910 0.0555 -1.1582 0.0192 0.9160 0.0000 3.6235 3.4556 3.0029 1.1449 1.1014 0.9652 0.0000 0.0000 0.0000 0.0000 0.0000 0.0000 0.0000 0.0000 0.0000 0.0000 0.0000 0.0000 0.0000 0.0000
-17.7709 21.2714 20.3909 -18.0932 -57.1194 51.2723 -13.6182 -98.5300 -44.7350 5.1500 10.7038 -99.1991 47.0066 -59.1257 -57.1496 -25.0606 42.0317 -88.0082 71.1333 67.0453 24.2942 105.1738 160.2803 -92.9000 -114.3263 -127.1641 73.0057 -93.1066 150.1904 -31.3429 118.7470 -61.9949 185.0178 -53.9569 68.7090 -5.4446 -19.2712 30.8024 -55.6504 11.5553 36.1586 12.6240 -35.1172 -30.2061 20.1759 34.3967 18.3278 56.4410 -19.7592 -6.4167 -4.1798 -22.8712 6.3696 25.8627 16.9158 9.1263 27.1972 16.8801 -0.7015 -5.8047 -16.7622 73.3933 12.2148 -38.8046 38.9920 45.2730 -28.9233 -10.5480 -6.9981 17.9876 11.1102 -0.3793 8.0285 -0.1540 -6.3620 -0.0000 -26.2450 -24.9979 -21.7840 -8.2467 -7.8246 -6.8166 0.0000 0.0000 0.0000 0.0000 0.0000 0.0000 0.0000 0.0000 0.0000 0.0000 0.0000 0.0000 0.0000 0.0000
-8.4627 10.6992 9.2950 -8.8813 -28.3290 24.8520 -6.3863 -49.1624 -21.9467 2.4210 5.6047 -49.1830 23.2472 -29.8466 -28.4453 -12.3823 20.8643 -43.7021 35.6882 33.2547 12.3872 52.3702 79.1148 -46.0069 -56.7594 -63.3597 36.3637 -46.2713 74.5094 -15.2553 58.9940 -30.6250 92.4591 -27.0435 34.2934 -2.2065 -9.6884 15.1620 -27.6458 5.6522 17.9774 6.3904 -17.5106 -14.9750 9.9160 16.9716 9.1694 28.0705 -9.7026 -2.9281 -1.8107 -11.4829 2.7962 12.9608 8.1050 4.5399 13.4377 8.4230 -0.3542 -2.8786 -8.3319 36.4392 6.2169 -19.5804 19.0529 22.2322 -14.4501 -5.2573 -3.3702 8.7667 5.5281 -0.1846 3.9811 -0.0760 -3.1481 -0.0000 -12.4761 -11.7179 -10.1790 -3.7987 -3.6409 -3.1642 0.0000 0.0000 0.0000 0.0000 0.0000 0.0000 0.0000 0.0000 0.0000 0.0000 0.0000 0.0000 0.0000 0.0000
17.6155 -19.1096 -22.4719 17.2429 54.3955 -50.8454 14.0236 88.4389 43.3222 -4.3285 -7.6328 91.1473 -43.6657 51.9369 52.2985 23.6785 -38.9429 81.3763 -62.6329 -62.9289 -20.2022 -95.8684 -149.1934 85.9983 105.2719 116.1331 -66.7487 85.3089 -139.0607 30.0592 -109.5715 57.5749 -168.4364 48.5148 -63.1638 6.1913 17.2740 -28.6126 50.7332 -11.6708 -33.3133 -11.4922 33.8152 25.5153 -19.3621 -31.8818 -17.1347 -51.1633 19.9716 8.4515 4.3905 19.8393 -6.0793 -22.6695 -18.1354 -9.1955 -24.9249 -15.0749 0.8371 5.4546 16.1146 -68.7864 -10.7376 35.8799 -37.3050 -43.9413 24.8523 10.1925 5.8089 -16.6080 -10.6198 0.3023 -7.1408 0.2880 5.8012 0.0000 26.4264 25.3955 22.3928 9.6042 8.9880 7.4091 0.0000 0.0000 0.0000 0.0000 0.0000 0.0000 0.0000 0.0000 0.0000 0.0000 0.0000 0.0000 0.0000 0.0000
-12.1188 12.5725 14.9034 -11.8082 -35.9639 32.1937 -8.7674 -61.9162 -27.3799 4.1417 7.4122 -62.9049 29.9714 -38.1304 -35.8792 -15.4283 26.2711 -55.2969 45.3697 40.9816 15.8549 66.1867 101.1692 -58.3651 -71.6742 -80.1865 46.1315 -58.9752 94.2249 -19.7532 74.1938 -39.7732 115.6858 -34.3120 42.1140 -4.3954 -12.0568 20.3146 -35.1708 7.0630 22.6464 7.5655 -21.2230 -20.6725 12.8079 21.6339 11.2401 35.8537 -11.8467 -3.1349 -2.8764 -15.1729 4.5221 17.0215 9.7940 5.4051 17.4255 10.8706 -0.3232 -3.5690 -10.2072 45.9187 7.7520 -23.8555 24.6962 27.6088 -19.7827 -6.3910 -5.3756 12.0257 6.7009 -0.2893 5.2708 0.0097 -4.1326 -0.0000 -18.0768 -17.7387 -15.6660 -4.9648 -4.8317 -4.3099 0.0000 0.0000 0.0000 0.0000 0.0000 0.0000 0.0000 0.0000 0.0000 0.0000 0.0000 0.0000 0.0000 0.0000
-10.4385 16.0296 7.8838 -10.4911 -38.2883 32.9917 -6.1573 -69.7390 -31.8213 -0.1061 6.4960 -68.5181 31.6351 -42.2996 -40.9951 -17.4650 29.0580 -61.5986 49.8995 49.2837 17.5774 73.8752 109.2804 -65.4547 -81.0680 -90.6911 51.9263 -65.2755 106.4151 -20.7380 84.4465 -42.0473 134.7950 -39.0113 50.3303 -0.1890 -13.4959 21.2121 -38.6980 9.0998 26.1086 11.1057 -27.8575 -16.8553 12.9366 23.4040 14.1527 39.1451 -14.3159 -4.3746 -0.7813 -15.0280 0.0145 15.9445 11.7241 6.9773 17.5052 11.3083 -0.8856 -4.1515 -12.4511 50.5900 9.1827 -29.7386 24.1877 31.9355 -15.6812 -7.8461 -1.4210 9.3548 8.2172 -0.0959 4.9175 -0.3737 -3.9287 -0.0000 -14.6656 -13.5416 -11.4001 -3.8535 -3.1279 -2.3767 0.0000 0.0000 0.0000 0.0000 0.0000 0.0000 0.0000 0.0000 0.0000 0.0000 0.0000 0.0000 0.0000 0.0000
16.7309 -9.0118 -31.1348 12.7281 38.8236 -47.6400 15.0141 49.9064 31.5054 -2.4558 2.3793 60.2363 -30.2947 26.4525 32.3269 16.1500 -25.2998 52.8905 -31.4874 -43.4015 -5.7451 -58.3707 -104.0142 57.8156 67.9024 71.3663 -40.6900 53.4716 -92.2588 24.4651 -70.0828 38.2398 -99.4687 27.0167 -36.9632 11.8322 8.3809 -22.4329 31.8385 -10.1877 -20.9088 -5.9148 23.7101 14.2813 -14.1044 -21.0364 -10.5550 -33.1078 16.8601 12.9013 6.2023 11.8080 -7.7152 -12.0246 -19.1026 -7.2480 -17.4928 -9.0051 0.8251 4.1207 11.7869 -48.2974 -5.8497 20.8651 -30.9118 -36.6432 12.6609 6.2850 3.0302 -11.8714 -7.6932 0.1356 -4.6307 0.3845 3.9012 0.0000 27.2125 27.0547 25.6302 9.8222 8.2591 6.1310 0.0000 0.0000 0.0000 0.0000 0.0000 0.0000 0.0000 0.0000 0.0000 0.0000 0.0000 0.0000 0.0000 0.0000
-3.6229 -0.6538 8.5342 -1.6439 -3.8641 8.0956 -2.7598 0.9168 -3.1948 -0.2992 -2.8360 -3.3960 2.3469 1.2619 -0.9862 -1.1231 1.2288 -2.6323 -1.9850 2.7101 -2.2986 1.3363 7.6798 -3.7978 -3.0596 -2.1554 1.3460 -2.2856 5.4336 -3.0931 2.8804 -2.8863 1.0507 0.0300 -0.0185 -3.8846 0.8212 3.1120 -0.9721 1.9255 0.8133 -0.1449 -2.2204 0.1624 1.7364 1.1783 0.5639 1.3535 -2.5548 -3.5154 -1.3742 -0.5160 1.1266 -0.3065 3.7155 1.0581 1.3486 0.1976 -0.2064 -0.4492 -1.3317 4.3327 0.0653 -0.8123 4.0369 4.9727 0.5155 -0.5797 0.2577 1.0184 0.7014 0.0273 0.2471 -0.1111 -0.2609 -0.0000 -5.6717 -7.7232 -7.3993 -2.4393 -2.2094 -1.4637 0.0000 0.0000 0.0000 0.0000 0.0000 0.0000 0.0000 0.0000 0.0000 0.0000 0.0000 0.0000 0.0000 0.0000
7.6576 -7.1038 -9.5155 7.6459 20.5117 -20.7121 7.4758 43.6978 23.2197 -4.1773 -3.4336 42.6664 -19.9849 20.6247 24.6870 10.6863 -17.5400 38.6595 -29.2241 -29.1104 -9.5950 -44.6866 -70.4539 39.9698 50.3289 54.4261 -32.3625 41.0078 -64.3459 14.1814 -51.8331 29.7764 -78.8704 22.7219 -30.1287 3.9796 7.8760 -14.1476 24.2193 -5.8610 -16.4482 -6.0675 16.1692 10.2629 -9.7468 -15.8152 -8.0876 -22.1821 9.6391 2.7609 3.0487 6.0038 -3.3066 -9.3180 -8.2943 -3.8877 -10.3527 -6.1753 0.3453 2.0061 6.6241 -28.4150 -3.1442 14.0159 -15.8419 -17.8725 11.0539 5.0575 3.9677 -8.6424 -4.0780 0.1875 -2.6951 0.1661 2.4819 0.0000 12.2595 11.8551 12.1187 6.8587 5.9752 4.7733 0.0000 0.0000 0.0000 0.0000 0.0000 0.0000 0.0000 0.0000 0.0000 0.0000 0.0000 0.0000 0.0000 0.0000
8.6459 -18.4097 2.1296 9.2359 40.0764 -23.5881 -2.2014 79.9141 27.2788 2.5945 -13.4757 75.2144 -33.5692 59.1929 46.5848 17.5382 -30.9074 66.1263 -63.0802 -50.6895 -26.8033 -83.5432 -111.6684 70.2744 88.3175 104.4928 -59.1633 73.0697 -115.7057 17.7213 -91.8275 44.2061 -157.7511 48.2048 -55.5165 -6.3830 16.2026 -23.8067 43.2573 -8.5474 -29.2087 -14.1674 29.8742 22.0599 -10.9177 -22.9185 -16.1906 -45.3053 11.1241 -3.5589 -3.9191 21.6227 6.4526 -20.2301 -4.4774 -6.3783 -18.3584 -13.7296 0.8401 4.3475 12.7987 -52.8894 -13.3611 36.6563 -19.6688 -28.1002 19.9710 8.1292 0.5695 -7.5310 -8.3175 0.0954 -5.7855 0.1639 4.1741 0.0000 10.8108 7.7298 5.5087 -3.8699 -3.4421 -3.0058 0.0000 0.0000 0.0000 0.0000 0.0000 0.0000 0.0000 0.0000 0.0000 0.0000 0.0000 0.0000 0.0000 0.0000
-8.3863 10.0763 5.5696 -7.2553 -23.9690 21.8314 -3.9519 -50.7996 -22.8283 -0.1506 4.4228 -50.6747 23.5826 -30.5202 -29.0261 -12.7550 21.2920 -44.2392 36.9198 35.2334 12.3879 53.2490 80.9820 -48.2304 -59.2205 -65.8949 37.3257 -47.2444 77.9756 -15.5762 61.0008 -31.1307 96.6053 -28.3071 34.6934 -2.5279 -8.8440 17.4121 -28.4363 6.7341 19.2459 7.7439 -18.6979 -14.1353 8.0912 16.3105 9.6404 29.1724 -9.4554 -0.8785 -2.4009 -11.5080 1.7065 10.3823 7.5497 3.8023 12.6952 8.1561 -0.4724 -2.7536 -7.9005 33.1385 6.3632 -18.0874 17.3321 21.4742 -11.1516 -4.6811 -1.4758 6.9167 5.1482 -0.1039 3.6478 -0.1319 -2.7389 -0.0000 -11.9763 -12.3693 -11.7618 -3.4758 -3.2971 -2.0192 0.0000 0.0000 0.0000 0.0000 0.0000 0.0000 0.0000 0.0000 0.0000 0.0000 0.0000 0.0000 0.0000 0.0000
